<?xml version="1.0" encoding="utf-8"?>
<!-- Generator: Adobe Illustrator 25.2.0, SVG Export Plug-In . SVG Version: 6.00 Build 0)  -->
<svg version="1.1" id="Ebene_1" xmlns="http://www.w3.org/2000/svg" xmlns:xlink="http://www.w3.org/1999/xlink" x="0px" y="0px"
	 viewBox="0 0 215.79 44.34" style="enable-background:new 0 0 215.79 44.34;" xml:space="preserve">
<style type="text/css">
	.st0{fill:url(#SVGID_1_);}
	.st1{fill:url(#SVGID_2_);}
	.st2{fill:url(#SVGID_3_);}
	.st3{fill:url(#SVGID_4_);}
	.st4{fill:url(#SVGID_5_);}
	.st5{fill:url(#SVGID_6_);}
	.st6{fill:url(#SVGID_7_);}
	.st7{fill:url(#SVGID_8_);}
	.st8{fill:#152F47;}
	.st9{fill:#8CA4B1;}
	.st10{font-family:'Roboto-Light';}
	.st11{font-size:17px;}
</style>
<linearGradient id="SVGID_1_" gradientUnits="userSpaceOnUse" x1="8.7078" y1="8.2133" x2="9.0488" y2="-0.3988">
	<stop  offset="0" style="stop-color:#9FC75D"/>
	<stop  offset="1" style="stop-color:#628E1A"/>
</linearGradient>
<polygon class="st0" points="17.19,22.21 17.19,0 0,0 "/>
<linearGradient id="SVGID_2_" gradientUnits="userSpaceOnUse" x1="132.5602" y1="-339.4343" x2="132.8022" y2="-349.1989" gradientTransform="matrix(1 0 0 -1 -107.042 -327.7969)">
	<stop  offset="0" style="stop-color:#9FC75D"/>
	<stop  offset="1" style="stop-color:#628E1A"/>
</linearGradient>
<polygon class="st1" points="17.19,0 17.19,22.21 34.37,22.21 "/>
<linearGradient id="SVGID_3_" gradientUnits="userSpaceOnUse" x1="-19.894" y1="30.2237" x2="-19.725" y2="23.4076" gradientTransform="matrix(-1 0 0 1 6.0391 0)">
	<stop  offset="0" style="stop-color:#3E9FD6"/>
	<stop  offset="1" style="stop-color:#035F94"/>
</linearGradient>
<polygon class="st2" points="34.33,44.34 34.33,22.13 17.14,22.13 "/>
<linearGradient id="SVGID_4_" gradientUnits="userSpaceOnUse" x1="149.6994" y1="-361.5612" x2="149.9415" y2="-371.3258" gradientTransform="matrix(1 0 0 -1 -107.042 -327.7969)">
	<stop  offset="0" style="stop-color:#3E9FD6"/>
	<stop  offset="1" style="stop-color:#035F94"/>
</linearGradient>
<polygon class="st3" points="34.33,22.13 34.33,44.34 51.51,44.34 "/>
<linearGradient id="SVGID_5_" gradientUnits="userSpaceOnUse" x1="42.7188" y1="8.0967" x2="42.8878" y2="1.2807">
	<stop  offset="0" style="stop-color:#EA268C"/>
	<stop  offset="1" style="stop-color:#AD1784"/>
</linearGradient>
<polygon class="st4" points="34.33,22.21 34.33,0 51.51,0 "/>
<linearGradient id="SVGID_6_" gradientUnits="userSpaceOnUse" x1="87.0866" y1="-339.4343" x2="87.3287" y2="-349.1989" gradientTransform="matrix(-1 0 0 -1 113.0811 -327.7969)">
	<stop  offset="0" style="stop-color:#EA268C"/>
	<stop  offset="1" style="stop-color:#AD1784"/>
</linearGradient>
<polygon class="st5" points="34.33,0 34.33,22.21 17.14,22.21 "/>
<linearGradient id="SVGID_7_" gradientUnits="userSpaceOnUse" x1="25.5796" y1="30.2237" x2="25.7485" y2="23.4077">
	<stop  offset="0" style="stop-color:#FBC247"/>
	<stop  offset="1" style="stop-color:#D79404"/>
</linearGradient>
<polygon class="st6" points="17.19,44.34 17.19,22.13 34.37,22.13 "/>
<linearGradient id="SVGID_8_" gradientUnits="userSpaceOnUse" x1="104.2258" y1="-361.5612" x2="104.4679" y2="-371.3258" gradientTransform="matrix(-1 0 0 -1 113.0811 -327.7969)">
	<stop  offset="0" style="stop-color:#FBC247"/>
	<stop  offset="1" style="stop-color:#D79404"/>
</linearGradient>
<polygon class="st7" points="17.19,22.13 17.19,44.34 0,44.34 "/>
<g>
	<path class="st8" d="M67.43,26.37l0.03,0.08c0.04,1.8-0.6,3.31-1.9,4.53c-1.3,1.22-3.02,1.83-5.15,1.83
		c-2.17,0-3.94-0.77-5.31-2.31c-1.37-1.54-2.05-3.49-2.05-5.85v-3.41c0-2.36,0.68-4.32,2.05-5.86c1.37-1.54,3.14-2.31,5.31-2.31
		c2.17,0,3.9,0.58,5.18,1.73c1.28,1.16,1.91,2.69,1.87,4.59l-0.03,0.08h-2.49c0-1.34-0.4-2.41-1.19-3.19
		c-0.79-0.78-1.91-1.17-3.35-1.17c-1.45,0-2.61,0.58-3.47,1.75c-0.86,1.17-1.29,2.62-1.29,4.35v3.44c0,1.75,0.43,3.21,1.29,4.37
		c0.86,1.17,2.02,1.75,3.47,1.75c1.44,0,2.56-0.39,3.35-1.17c0.79-0.78,1.19-1.85,1.19-3.22H67.43z"/>
	<path class="st8" d="M80.36,27.58h-8.04l-1.82,4.94h-2.65l7.42-19.2h2.23l7.3,19.2h-2.65L80.36,27.58z M73.13,25.41h6.46
		l-3.16-8.74h-0.08L73.13,25.41z"/>
	<path class="st8" d="M89.77,13.33l6.12,15.6h0.08l6.12-15.6h3.32v19.2h-2.6v-7.59l0.26-7.8L103,17.12l-6.22,15.41h-1.73l-6.2-15.37
		l-0.07,0.01l0.25,7.77v7.59h-2.6v-19.2H89.77z"/>
	<path class="st8" d="M110.76,24.83v7.7h-2.6v-19.2h7.34c2.05,0,3.64,0.53,4.77,1.58c1.13,1.05,1.7,2.44,1.7,4.17
		c0,1.75-0.57,3.14-1.7,4.19c-1.13,1.04-2.72,1.56-4.77,1.56H110.76z M110.76,22.79h4.75c1.3,0,2.27-0.35,2.91-1.05
		s0.96-1.58,0.96-2.64c0-1.06-0.32-1.95-0.97-2.66c-0.65-0.71-1.61-1.07-2.91-1.07h-4.75V22.79z"/>
	<path class="st8" d="M133.53,27.58h-8.04l-1.82,4.94h-2.65l7.42-19.2h2.23l7.3,19.2h-2.65L133.53,27.58z M126.29,25.41h6.46
		l-3.16-8.74h-0.08L126.29,25.41z"/>
	<path class="st8" d="M142.35,32.53h-2.61v-19.2h2.61V32.53z"/>
	<path class="st8" d="M160.15,29.98c-0.46,0.7-1.25,1.35-2.38,1.94c-1.13,0.59-2.59,0.88-4.38,0.88c-2.29,0-4.19-0.73-5.69-2.2
		c-1.5-1.47-2.25-3.37-2.25-5.7v-3.96c0-2.33,0.7-4.23,2.1-5.7c1.4-1.47,3.2-2.2,5.4-2.2c2.2,0,3.92,0.54,5.18,1.62
		c1.26,1.08,1.9,2.47,1.92,4.18l-0.03,0.08h-2.48c-0.08-1.12-0.5-2.03-1.27-2.75c-0.77-0.72-1.88-1.08-3.33-1.08
		c-1.47,0-2.65,0.55-3.55,1.65c-0.9,1.1-1.34,2.49-1.34,4.18v3.98c0,1.7,0.5,3.11,1.5,4.21c1,1.1,2.28,1.65,3.82,1.65
		c1.09,0,1.98-0.14,2.68-0.43c0.7-0.29,1.19-0.62,1.49-0.99v-4.35h-4.21v-2.04h6.8V29.98z"/>
	<path class="st8" d="M178.16,32.53h-2.6l-9.24-14.85l-0.08,0.03v14.82h-2.6v-19.2h2.6l9.24,14.82l0.08-0.03V13.33h2.6V32.53z"/>
</g>
<text transform="matrix(1 0 0 1 184.0464 21.2158)" class="st9 st10 st11">PRO</text>
</svg>
